<svg width="1775" height="609" viewBox="0 0 1775 609" fill="none" xmlns="http://www.w3.org/2000/svg">
<g clip-path="url(#clip0_3_2975)">
<path d="M1857 0H-63V609H1857V0Z" fill="#24231D"/>
<mask id="mask0_3_2975" style="mask-type:luminance" maskUnits="userSpaceOnUse" x="1395" y="163" width="462" height="363">
<path d="M1857 163.52H1395V525.03H1857V163.52Z" fill="white"/>
</mask>
<g mask="url(#mask0_3_2975)">
<g opacity="0.1">
<path d="M1356.52 368.172C1356.52 368.172 1359.28 373.853 1368.14 382.654C1379.62 394.129 1401.12 410.728 1439.47 426.66C1507.46 454.845 1550.46 501.635 1550.46 501.635L1589.97 404.935C1589.97 404.935 1572.39 403.932 1547.7 390.453C1530.85 381.317 1510.8 366.389 1490.61 342.102C1440.78 282.055 1388.62 269.021 1388.62 269.021" fill="white"/>
<mask id="mask1_3_2975" style="mask-type:luminance" maskUnits="userSpaceOnUse" x="1356" y="269" width="234" height="233">
<path d="M1356.52 368.172C1356.52 368.172 1359.28 373.853 1368.14 382.654C1379.62 394.129 1401.12 410.728 1439.47 426.66C1507.46 454.845 1550.46 501.635 1550.46 501.635L1589.97 404.935C1589.97 404.935 1572.39 403.932 1547.7 390.453C1530.85 381.317 1510.8 366.389 1490.61 342.102C1440.78 282.055 1388.62 269.021 1388.62 269.021" fill="white"/>
</mask>
<g mask="url(#mask1_3_2975)">
<path opacity="0.4" d="M1368.14 382.654C1379.62 394.129 1401.12 410.728 1439.47 426.659C1507.46 454.845 1550.46 501.635 1550.46 501.635L1589.97 404.935C1589.97 404.935 1572.39 403.932 1547.7 390.452C1527.5 390.007 1485.37 400.59 1464.02 416.521C1464.02 416.521 1414.34 397.248 1368.14 382.654Z" fill="#4BAF47"/>
</g>
<mask id="mask2_3_2975" style="mask-type:luminance" maskUnits="userSpaceOnUse" x="1356" y="269" width="234" height="233">
<path d="M1356.52 368.172C1356.52 368.172 1359.28 373.853 1368.14 382.654C1379.62 394.129 1401.12 410.728 1439.47 426.66C1507.46 454.845 1550.46 501.635 1550.46 501.635L1589.97 404.935C1589.97 404.935 1572.39 403.932 1547.7 390.453C1530.85 381.317 1510.8 366.389 1490.61 342.102C1440.78 282.055 1388.62 269.021 1388.62 269.021" fill="white"/>
</mask>
<g mask="url(#mask2_3_2975)">
<path d="M1498.88 403.487C1498.88 403.487 1523 419.529 1536.66 419.975" stroke="#263238" stroke-miterlimit="10" stroke-linecap="round" stroke-linejoin="round"/>
</g>
<mask id="mask3_3_2975" style="mask-type:luminance" maskUnits="userSpaceOnUse" x="1356" y="269" width="234" height="233">
<path d="M1356.52 368.172C1356.52 368.172 1359.28 373.853 1368.14 382.654C1379.62 394.129 1401.12 410.728 1439.47 426.66C1507.46 454.845 1550.46 501.635 1550.46 501.635L1589.97 404.935C1589.97 404.935 1572.39 403.932 1547.7 390.453C1530.85 381.317 1510.8 366.389 1490.61 342.102C1440.78 282.055 1388.62 269.021 1388.62 269.021" fill="white"/>
</mask>
<g mask="url(#mask3_3_2975)">
<path d="M1427.99 421.98C1445.28 428.442 1470.56 435.572 1479.71 439.248" stroke="#263238" stroke-miterlimit="10" stroke-linecap="round" stroke-linejoin="round"/>
</g>
<mask id="mask4_3_2975" style="mask-type:luminance" maskUnits="userSpaceOnUse" x="1356" y="269" width="234" height="233">
<path d="M1356.52 368.172C1356.52 368.172 1359.28 373.853 1368.14 382.654C1379.62 394.129 1401.12 410.728 1439.47 426.66C1507.46 454.845 1550.46 501.635 1550.46 501.635L1589.97 404.935C1589.97 404.935 1572.39 403.932 1547.7 390.453C1530.85 381.317 1510.8 366.389 1490.61 342.102C1440.78 282.055 1388.62 269.021 1388.62 269.021" fill="white"/>
</mask>
<g mask="url(#mask4_3_2975)">
<path d="M1494.09 346.447C1500.48 357.031 1510.65 367.614 1510.65 367.614" stroke="#263238" stroke-miterlimit="10" stroke-linecap="round" stroke-linejoin="round"/>
</g>
<path d="M1356.52 368.172C1356.52 368.172 1359.28 373.853 1368.14 382.654C1379.62 394.129 1401.12 410.728 1439.47 426.66C1507.46 454.845 1550.46 501.635 1550.46 501.635L1589.97 404.935C1589.97 404.935 1572.39 403.932 1547.7 390.453C1530.85 381.317 1510.8 366.389 1490.61 342.102C1440.78 282.055 1388.62 269.021 1388.62 269.021" stroke="#263238" stroke-miterlimit="10" stroke-linecap="round" stroke-linejoin="round"/>
<path d="M1988.17 359.258C1988.17 359.258 1985.41 364.94 1976.55 373.741C1965.07 385.216 1943.57 401.816 1905.22 417.746C1837.23 445.932 1794.23 492.722 1794.23 492.722L1754.71 396.022C1754.71 396.022 1772.29 395.02 1796.99 381.539C1813.84 372.404 1833.89 357.476 1854.08 333.19C1903.91 273.142 1955.92 260.108 1955.92 260.108" fill="white"/>
<mask id="mask5_3_2975" style="mask-type:luminance" maskUnits="userSpaceOnUse" x="1754" y="260" width="235" height="233">
<path d="M1988.17 359.258C1988.17 359.258 1985.41 364.94 1976.55 373.741C1965.07 385.216 1943.57 401.816 1905.22 417.746C1837.23 445.932 1794.23 492.722 1794.23 492.722L1754.71 396.022C1754.71 396.022 1772.29 395.02 1796.99 381.539C1813.84 372.404 1833.89 357.476 1854.08 333.19C1903.91 273.142 1955.92 260.108 1955.92 260.108" fill="white"/>
</mask>
<g mask="url(#mask5_3_2975)">
<path opacity="0.4" d="M1976.55 373.741C1965.07 385.216 1943.57 401.815 1905.22 417.746C1837.23 445.932 1794.23 492.722 1794.23 492.722L1754.71 396.022C1754.71 396.022 1772.29 395.019 1796.99 381.539C1817.33 381.094 1853.35 388.336 1871.37 410.505C1871.37 410.617 1930.2 388.336 1976.55 373.741Z" fill="#4BAF47"/>
</g>
<path d="M1988.17 359.258C1988.17 359.258 1985.41 364.94 1976.55 373.741C1965.07 385.216 1943.57 401.816 1905.22 417.746C1837.23 445.932 1794.23 492.722 1794.23 492.722L1754.71 396.022C1754.71 396.022 1772.29 395.02 1796.99 381.539C1813.84 372.404 1833.89 357.476 1854.08 333.19C1903.91 273.142 1955.92 260.108 1955.92 260.108" stroke="#263238" stroke-miterlimit="10" stroke-linecap="round" stroke-linejoin="round"/>
<path d="M1622.37 428.107L1579.95 432.006C1579.95 432.006 1550.31 438.914 1543.2 443.927C1536.08 448.828 1526.63 462.086 1526.63 462.086C1526.63 462.086 1516.17 463.646 1510.8 462.086C1509.49 461.752 1508.47 461.195 1508.04 460.304C1507.31 459.189 1506.88 457.853 1506.59 456.404C1505.28 450.611 1506.3 443.816 1506.3 443.816C1506.3 443.816 1499.32 436.129 1499.03 433.009C1498.74 430.001 1500.19 416.967 1504.41 413.402C1504.55 413.291 1504.84 413.068 1504.99 412.956C1509.64 410.059 1536.22 401.036 1536.22 401.036C1536.22 401.036 1542.18 394.129 1556.85 392.123C1571.38 390.118 1602.9 397.248 1602.9 397.248L1607.55 404.489L1622.37 428.107Z" fill="white"/>
<path opacity="0.4" d="M1506.44 456.515C1505.13 450.722 1506.15 443.927 1506.15 443.927C1506.15 443.927 1499.18 436.24 1498.89 433.12C1498.59 430.113 1500.05 417.078 1504.26 413.513C1499.32 420.977 1500.34 432.341 1507.17 428.775C1515.45 424.32 1524.02 433.343 1524.02 433.343C1515.01 436.908 1508.47 449.163 1506.44 456.515Z" fill="#4BAF47"/>
<path opacity="0.4" d="M1622.37 428.107L1579.95 432.006C1579.95 432.006 1550.31 438.914 1543.19 443.927C1536.08 448.829 1526.63 462.086 1526.63 462.086C1526.63 462.086 1516.17 463.646 1510.8 462.086C1515.74 460.972 1522.86 456.738 1524.16 451.057C1526.05 443.035 1543.78 435.683 1543.19 429.445C1542.47 423.205 1528.96 412.957 1528.96 412.957C1536.95 411.619 1544.07 415.408 1544.07 415.408C1540.29 411.508 1533.17 408.166 1533.17 408.166C1548.72 406.829 1551.77 415.295 1551.77 415.295C1556.12 416.076 1566.29 412.957 1566.29 412.957C1566.29 408.055 1569.49 404.378 1569.49 404.378L1574.57 410.394C1580.09 410.394 1598.54 406.383 1607.41 404.378L1622.37 428.107Z" fill="#4BAF47"/>
<path d="M1507.89 460.415C1510.22 464.537 1526.49 462.086 1526.49 462.086C1526.49 462.086 1535.93 448.828 1543.05 443.927C1550.17 439.025 1579.8 432.006 1579.8 432.006L1622.22 428.107L1602.76 397.359C1602.76 397.359 1571.23 390.229 1556.7 392.235C1542.18 394.24 1536.07 401.147 1536.07 401.147C1536.07 401.147 1509.49 410.17 1504.84 413.067C1500.19 415.964 1498.59 430.001 1498.88 433.121C1499.18 436.24 1506.15 443.927 1506.15 443.927C1506.15 443.927 1504.55 454.51 1507.89 460.415Z" stroke="#263238" stroke-miterlimit="10" stroke-linecap="round" stroke-linejoin="round"/>
<path d="M1508.62 457.629C1508.62 457.629 1511.23 446.155 1523.87 442.033C1523.87 442.033 1525.18 435.237 1521.84 432.118C1518.5 428.998 1508.91 435.126 1508.62 442.033C1508.18 448.94 1508.62 457.629 1508.62 457.629Z" stroke="#263238" stroke-miterlimit="10" stroke-linecap="round" stroke-linejoin="round"/>
<path d="M1536.07 415.407C1536.07 415.407 1558.16 422.983 1546.68 441.922" stroke="#263238" stroke-miterlimit="10" stroke-linecap="round" stroke-linejoin="round"/>
<path d="M1543.92 411.842C1543.92 411.842 1562.66 424.32 1548.86 439.916" stroke="#263238" stroke-miterlimit="10" stroke-linecap="round" stroke-linejoin="round"/>
<path d="M1569.49 409.279C1569.49 409.279 1567.74 416.521 1569.49 425.879" stroke="#263238" stroke-miterlimit="10" stroke-linecap="round" stroke-linejoin="round"/>
<path d="M1513.85 428.664C1513.85 428.664 1509.93 430.113 1507.17 437.799" stroke="#263238" stroke-miterlimit="10" stroke-linecap="round" stroke-linejoin="round"/>
<path d="M1510.51 415.407C1510.51 415.407 1504.84 415.964 1501.94 424.543" stroke="#263238" stroke-miterlimit="10" stroke-linecap="round" stroke-linejoin="round"/>
<path d="M1837.23 428.107C1832.58 430.447 1830.11 435.238 1830.11 435.238C1830.11 435.238 1830.98 443.927 1830.11 446.267C1829.24 448.605 1822.99 452.839 1817.91 450.5C1812.97 448.049 1810.35 439.136 1797.42 435.349L1716.65 410.728C1716.65 410.728 1719.56 407.163 1726.38 402.818C1731.03 399.81 1737.57 396.468 1746.14 393.683C1767.06 386.776 1792.63 382.543 1805.12 385.551C1812.1 387.221 1820.52 393.237 1827.06 399.142C1832.14 403.709 1835.92 408.277 1837.08 410.728C1839.99 416.187 1841.88 425.879 1837.23 428.107Z" fill="white"/>
<path opacity="0.4" d="M1837.23 428.107C1832.58 430.447 1830.11 435.238 1830.11 435.238C1830.11 435.238 1830.98 443.927 1830.11 446.267C1829.24 448.606 1822.99 452.839 1817.91 450.5C1812.97 448.049 1810.35 439.136 1797.42 435.349L1716.65 410.728C1716.65 410.728 1719.56 407.163 1726.38 402.818C1737.42 402.818 1751.95 403.598 1763.86 407.386C1763.86 407.386 1762.99 400.479 1767.64 401.258C1767.64 401.258 1766.48 394.352 1771.42 393.906C1776.36 393.572 1775.2 396.134 1775.2 396.134C1775.2 396.134 1775.2 403.152 1779.26 404.601C1783.19 406.049 1781.01 396.357 1788.71 395.02C1788.71 395.02 1789.14 405.938 1793.65 409.502C1793.65 409.502 1788.42 420.977 1795.53 426.659C1802.65 432.341 1815.87 439.136 1818.78 438.914C1821.68 438.691 1810.93 428.775 1810.93 428.775C1810.93 428.775 1811.08 418.638 1819.21 416.633C1827.35 414.627 1834.47 419.752 1834.47 419.752C1834.47 419.752 1833.31 410.171 1826.77 399.142C1831.85 403.709 1835.63 408.277 1836.79 410.728C1839.99 416.187 1841.88 425.879 1837.23 428.107Z" fill="#4BAF47"/>
<path d="M1716.94 410.617C1716.94 410.617 1725.37 400.479 1746.43 393.572C1767.35 386.664 1792.92 382.431 1805.41 385.439C1817.91 388.447 1834.76 405.047 1837.37 410.617C1839.99 416.187 1842.02 425.879 1837.37 428.219C1832.72 430.558 1830.25 435.349 1830.25 435.349C1830.25 435.349 1831.13 444.038 1830.25 446.378C1829.38 448.717 1823.14 452.951 1818.05 450.611C1813.11 448.16 1810.5 439.248 1797.57 435.46" stroke="#263238" stroke-miterlimit="10" stroke-linecap="round" stroke-linejoin="round"/>
<path d="M1789.14 397.359C1789.14 397.359 1783.19 412.733 1789.14 421.311C1789.14 421.311 1774.9 413.179 1764.15 416.744" stroke="#263238" stroke-miterlimit="10" stroke-linecap="round" stroke-linejoin="round"/>
<path d="M1776.65 416.521C1776.65 416.521 1774.61 410.505 1774.91 407.275C1775.2 404.043 1769.53 400.144 1771.71 396.134" stroke="#263238" stroke-miterlimit="10" stroke-linecap="round" stroke-linejoin="round"/>
<path d="M1767.93 403.486C1767.93 403.486 1772.73 411.73 1775.63 413.068" stroke="#263238" stroke-miterlimit="10" stroke-linecap="round" stroke-linejoin="round"/>
<path d="M1683.24 300.882C1683.24 300.882 1660.14 290.633 1679.03 253.646C1697.91 216.66 1755 205.519 1767.93 194.378C1767.93 194.49 1762.7 307.901 1683.24 300.882Z" fill="#4BAF47"/>
<mask id="mask6_3_2975" style="mask-type:luminance" maskUnits="userSpaceOnUse" x="1671" y="194" width="97" height="108">
<path d="M1683.24 300.882C1683.24 300.882 1660.14 290.633 1679.03 253.646C1697.91 216.66 1755 205.519 1767.93 194.378C1767.93 194.49 1762.7 307.901 1683.24 300.882Z" fill="white"/>
</mask>
<g mask="url(#mask6_3_2975)">
<path opacity="0.3" d="M1757.91 205.074C1751.37 214.543 1731.32 226.575 1709.39 255.318C1696.02 272.697 1687.02 290.633 1682.51 300.548C1679.03 298.543 1664.79 288.516 1675.54 261.556C1675.97 271.137 1680.33 276.485 1680.33 276.485C1679.03 239.275 1757.91 205.074 1757.91 205.074Z" fill="black" fill-opacity="0.7"/>
</g>
<path d="M1683.24 300.882C1683.24 300.882 1660.14 290.633 1679.03 253.646C1697.91 216.66 1755 205.519 1767.93 194.378C1767.93 194.49 1762.7 307.901 1683.24 300.882Z" stroke="#263238" stroke-miterlimit="10" stroke-linecap="round" stroke-linejoin="round"/>
<path d="M1685.42 255.317C1685.42 255.317 1681.79 275.036 1690.07 287.959L1694.14 279.715C1694.14 279.715 1722.9 279.159 1737.86 265.009" stroke="#263238" stroke-miterlimit="10" stroke-linecap="round" stroke-linejoin="round"/>
<path d="M1701.11 238.495C1701.11 238.495 1694.57 256.989 1699.22 269.911L1701.11 263.45C1701.11 263.45 1737.14 256.32 1744.84 247.741" stroke="#263238" stroke-miterlimit="10" stroke-linecap="round" stroke-linejoin="round"/>
<path d="M1719.85 226.464C1719.85 226.464 1711.13 240.278 1711.28 251.753L1715.49 246.183C1715.49 246.183 1745.85 241.726 1751.23 234.485" stroke="#263238" stroke-miterlimit="10" stroke-linecap="round" stroke-linejoin="round"/>
<path d="M1737.86 214.654C1731.47 221.339 1723.92 236.49 1723.92 236.49L1730.89 230.474C1730.89 230.474 1748.03 227.021 1754.42 220.559" stroke="#263238" stroke-miterlimit="10" stroke-linecap="round" stroke-linejoin="round"/>
<path d="M1655.78 398.362C1655.78 398.362 1665.66 264.898 1749.48 214.543C1749.48 214.543 1671.76 263.784 1667.7 398.362H1655.78Z" fill="#4BAF47"/>
<mask id="mask7_3_2975" style="mask-type:luminance" maskUnits="userSpaceOnUse" x="1655" y="214" width="95" height="185">
<path d="M1655.78 398.362C1655.78 398.362 1665.66 264.898 1749.48 214.543C1749.48 214.543 1671.76 263.784 1667.7 398.362H1655.78Z" fill="white"/>
</mask>
<g mask="url(#mask7_3_2975)">
<path opacity="0.3" d="M1655.78 398.362C1655.78 398.362 1665.66 264.898 1749.48 214.543C1749.48 214.543 1671.76 263.784 1667.7 398.362H1655.78Z" fill="black" fill-opacity="0.7"/>
</g>
<path d="M1655.78 398.362C1655.78 398.362 1665.66 264.898 1749.48 214.543C1749.48 214.543 1671.76 263.784 1667.7 398.362H1655.78Z" stroke="#263238" stroke-miterlimit="10" stroke-linecap="round" stroke-linejoin="round"/>
<path d="M1647.94 259.328C1647.94 259.328 1668.57 250.193 1651.71 217.105C1634.72 184.018 1583.73 173.992 1572.25 164.076C1572.1 164.076 1576.75 265.567 1647.94 259.328Z" fill="#4BAF47"/>
<mask id="mask8_3_2975" style="mask-type:luminance" maskUnits="userSpaceOnUse" x="1572" y="164" width="87" height="96">
<path d="M1647.94 259.328C1647.94 259.328 1668.57 250.193 1651.71 217.105C1634.72 184.018 1583.73 173.992 1572.25 164.076C1572.1 164.076 1576.75 265.567 1647.94 259.328Z" fill="white"/>
</mask>
<g mask="url(#mask8_3_2975)">
<path opacity="0.3" d="M1651.71 217.105C1650.84 215.323 1649.68 213.541 1648.52 211.981C1645.9 208.639 1652.44 218.554 1652.58 226.575C1652.58 229.472 1651.57 233.928 1646.48 237.158C1645.18 231.923 1644.45 226.464 1641.25 221.673C1624.55 197.609 1585.76 175.774 1579.51 172.098C1580.24 172.766 1601.45 193.265 1614.09 205.074C1620.91 211.424 1625.27 219.445 1629.78 226.798C1635.44 236.156 1640.53 245.737 1645.47 255.318C1646.19 256.654 1646.92 257.991 1647.5 259.328C1653.17 256.654 1656.22 251.642 1657.52 246.628C1659.7 238.05 1657.09 229.249 1653.6 221.005C1652.87 219.779 1652.29 218.443 1651.71 217.105Z" fill="black" fill-opacity="0.7"/>
</g>
<path d="M1647.94 259.328C1647.94 259.328 1668.57 250.193 1651.71 217.105C1634.72 184.018 1583.73 173.992 1572.25 164.076C1572.1 164.076 1576.75 265.567 1647.94 259.328Z" stroke="#263238" stroke-miterlimit="10" stroke-linecap="round" stroke-linejoin="round"/>
<path d="M1645.9 218.442C1645.9 218.442 1649.1 236.156 1641.69 247.63L1638.06 240.278C1638.06 240.278 1612.34 239.72 1598.98 227.132" stroke="#263238" stroke-miterlimit="10" stroke-linecap="round" stroke-linejoin="round"/>
<path d="M1631.96 203.514C1631.96 203.514 1637.77 220.113 1633.7 231.588L1631.96 225.795C1631.96 225.795 1599.7 219.445 1592.88 211.758" stroke="#263238" stroke-miterlimit="10" stroke-linecap="round" stroke-linejoin="round"/>
<path d="M1615.25 192.707C1615.25 192.707 1623.09 205.074 1622.8 215.323L1619.03 210.31C1619.03 210.31 1591.86 206.41 1587.07 199.837" stroke="#263238" stroke-miterlimit="10" stroke-linecap="round" stroke-linejoin="round"/>
<path d="M1598.98 182.125C1604.64 188.14 1611.47 201.62 1611.47 201.62L1605.22 196.162C1605.22 196.162 1589.83 193.042 1584.16 187.36" stroke="#263238" stroke-miterlimit="10" stroke-linecap="round" stroke-linejoin="round"/>
<path d="M1669 341.1C1669 341.1 1663.63 227.132 1588.67 182.013C1588.67 182.013 1660.87 231.588 1661.88 359.147C1661.88 359.147 1664.21 359.481 1665.52 356.585" fill="#4BAF47"/>
<mask id="mask9_3_2975" style="mask-type:luminance" maskUnits="userSpaceOnUse" x="1588" y="182" width="81" height="178">
<path d="M1669 341.1C1669 341.1 1663.63 227.132 1588.67 182.013C1588.67 182.013 1660.87 231.588 1661.88 359.147C1661.88 359.147 1664.21 359.481 1665.52 356.585" fill="white"/>
</mask>
<g mask="url(#mask9_3_2975)">
<path opacity="0.3" d="M1669 341.1C1669 341.1 1663.63 227.132 1588.67 182.013C1588.67 182.013 1660.87 231.588 1661.88 359.147C1661.88 359.147 1664.21 359.481 1665.52 356.585" fill="black" fill-opacity="0.7"/>
</g>
<path d="M1669 341.1C1669 341.1 1663.63 227.132 1588.67 182.013C1588.67 182.013 1660.87 231.588 1661.88 359.147C1661.88 359.147 1664.21 359.481 1665.52 356.585" stroke="#263238" stroke-miterlimit="10" stroke-linecap="round" stroke-linejoin="round"/>
<path d="M1547.84 444.595C1547.84 444.595 1542.9 441.587 1547.84 432.118C1551.62 424.876 1564.11 425.211 1564.84 417.635C1569.93 418.081 1573.99 415.519 1576.75 412.399C1579.37 409.168 1581.55 405.381 1585.91 403.709C1587.21 403.152 1588.81 402.929 1590.12 402.373C1595.35 400.256 1597.24 394.463 1602.9 393.126C1606.24 392.346 1610.17 393.46 1613.22 392.234C1616.41 391.009 1617.87 387.779 1621.06 386.664C1622.51 386.219 1623.97 386.219 1625.42 385.885C1631.38 384.659 1635.15 379.201 1641.11 379.312C1642.85 379.312 1644.74 379.869 1646.34 379.312C1647.5 378.866 1648.37 377.752 1649.54 377.418C1650.55 377.084 1651.71 377.306 1652.88 377.529C1656.07 377.975 1660.14 377.975 1663.05 376.861C1665.95 375.858 1666.68 372.85 1668.42 372.182C1675.54 369.508 1683.38 379.869 1687.45 382.543C1689.78 384.102 1692.54 380.203 1695.59 380.314C1698.35 380.426 1699.8 383.768 1702.71 383.434C1701.4 384.213 1702.12 385.996 1703.58 386.553C1705.03 387.221 1706.77 387.11 1708.37 387.221C1712.44 387.556 1716.07 389.115 1719.56 390.675C1720.14 390.898 1720.72 391.232 1721.16 391.678C1721.59 392.123 1721.59 392.791 1722.17 393.238C1723.04 394.24 1725.22 394.351 1725.95 395.354C1726.24 395.911 1726.09 396.468 1726.38 397.136C1726.82 398.808 1729.44 399.587 1731.61 399.699C1733.79 399.81 1736.12 399.588 1738.01 400.478C1739.46 401.147 1740.33 402.373 1741.49 403.264C1745.85 406.494 1750.94 406.383 1755 410.394C1759.22 414.738 1762.12 419.418 1768.08 422.425C1778.25 427.662 1781.15 435.015 1783.91 441.921C1786.67 448.829 1747.3 465.874 1667.69 470.33C1588.08 474.786 1546.83 449.163 1547.84 444.595Z" fill="#263238"/>
<path opacity="0.4" d="M1622.08 397.026C1623.82 397.36 1626.44 397.248 1626.73 395.912C1626.73 395.577 1626.58 395.243 1626.87 395.02C1627.31 394.24 1629.05 394.797 1630.21 394.575C1631.09 394.463 1631.52 393.795 1632.25 393.349C1633.85 392.235 1636.46 392.123 1638.2 393.127C1639.22 393.795 1639.8 394.686 1640.96 395.131C1643.14 395.912 1646.63 395.02 1647.5 396.803" stroke="white" stroke-miterlimit="10" stroke-linecap="round" stroke-linejoin="round"/>
<path opacity="0.4" d="M1652.73 405.715C1654.62 406.829 1657.82 405.938 1658.54 404.155C1658.69 403.709 1658.83 403.153 1659.27 402.93C1659.99 402.484 1661.01 403.041 1662.03 403.153C1663.92 403.264 1664.93 401.705 1666.1 400.59C1667.55 399.365 1669.87 398.808 1672.05 399.142C1674.23 399.476 1675.97 400.813 1676.56 402.373C1680.19 403.153 1683.82 403.821 1687.45 404.601" stroke="white" stroke-miterlimit="10" stroke-linecap="round" stroke-linejoin="round"/>
<path opacity="0.4" d="M1671.47 388.002C1673.36 387.555 1675.25 387.332 1677.28 387.332C1676.7 386.441 1677.14 385.216 1678.16 384.547C1679.17 383.879 1680.77 383.768 1681.79 384.325C1683.53 382.988 1687.02 383.211 1688.47 384.882C1688.61 385.328 1688.76 385.773 1688.91 386.33C1691.81 386.998 1694.43 388.224 1696.75 389.672" stroke="white" stroke-miterlimit="10" stroke-linecap="round" stroke-linejoin="round"/>
<path opacity="0.4" d="M1701.83 398.473C1702.85 398.696 1703.72 398.919 1704.74 399.142C1704.3 398.584 1705.18 397.805 1706.05 397.693C1706.92 397.582 1707.94 397.693 1708.66 397.359C1709.53 396.914 1709.82 396.134 1710.41 395.465C1710.99 394.797 1712.44 394.463 1712.87 395.131C1712.73 394.463 1713.75 393.794 1714.76 393.906C1715.78 393.906 1716.51 394.351 1717.38 394.797C1719.85 396.134 1722.32 397.471 1724.79 398.808" stroke="white" stroke-miterlimit="10" stroke-linecap="round" stroke-linejoin="round"/>
<path d="M1523.58 462.086C1523.58 462.086 1532.01 450.722 1543.05 443.927C1554.09 437.131 1562.08 428.441 1571.82 419.195C1581.55 409.949 1595.64 398.25 1602.76 397.359C1609.88 396.468 1625.71 398.139 1627.46 409.391C1627.46 409.391 1638.35 399.365 1653.46 406.383C1668.57 413.402 1661.16 426.659 1661.16 426.659C1661.16 426.659 1666.68 424.988 1670.17 426.659C1673.65 428.33 1683.39 518.123 1683.39 518.123C1683.39 518.123 1675.4 519.571 1666.97 522.245C1658.54 524.919 1647.94 525.253 1640.82 522.245C1640.82 522.245 1627.6 524.919 1618.74 524.362C1609.88 523.916 1586.05 523.581 1577.63 521.911C1569.2 520.239 1556.42 516.229 1550.61 514.001C1544.79 511.773 1538.26 506.425 1535.5 502.304C1532.88 498.181 1527.94 496.845 1520.39 489.826C1512.98 482.919 1523.58 462.086 1523.58 462.086Z" fill="white"/>
<path opacity="0.4" d="M1670.16 426.659C1666.82 424.988 1661.59 426.547 1661.16 426.659C1661.3 426.436 1662.03 424.988 1662.61 422.76L1653.46 437.465C1653.46 437.465 1639.37 451.502 1634.43 457.742C1629.34 463.98 1633.7 464.648 1627.45 474.675C1621.21 484.701 1612.2 503.863 1602.76 505.423C1593.17 506.982 1572.83 501.635 1569.05 494.171C1565.28 486.707 1574.43 481.359 1585.61 470.553C1596.8 459.746 1601.45 455.625 1600.58 450.611C1599.71 445.709 1622.37 415.184 1623.82 413.402C1623.24 413.959 1619.75 417.635 1615.4 422.092C1617.14 419.641 1618.88 416.744 1620.48 413.402L1599.56 406.606C1599.56 406.606 1578.93 423.428 1590.12 429.779C1596.22 433.344 1602.18 433.344 1607.84 429.779C1603.48 434.123 1599.13 438.246 1596.8 440.25C1590.12 445.821 1588.81 452.06 1585.91 455.625C1582.85 459.301 1571.09 474.452 1560.92 479.911C1550.75 485.37 1544.65 486.929 1536.37 483.476C1530.7 481.136 1527.21 468.213 1525.47 460.304C1524.45 461.529 1523.87 462.309 1523.87 462.309C1523.87 462.309 1513.27 483.142 1520.82 490.049C1528.38 496.956 1533.17 498.293 1535.79 502.527C1538.4 506.648 1545.08 511.996 1550.89 514.224C1556.71 516.452 1569.49 520.462 1577.92 522.134C1586.34 523.804 1610.17 524.139 1619.03 524.585C1627.89 525.03 1641.11 522.468 1641.11 522.468C1648.23 525.476 1658.83 525.142 1667.26 522.468C1673.51 520.462 1679.46 519.126 1682.22 518.569C1682.66 518.123 1683.09 517.677 1683.53 517.12C1682.08 506.537 1673.36 428.219 1670.16 426.659Z" fill="#4BAF47"/>
<path opacity="0.4" d="M1635.01 413.068C1635.01 413.068 1613.94 431.783 1628.47 439.916C1643 448.049 1658.69 432.564 1659.41 419.64L1635.01 413.068Z" fill="#4BAF47"/>
<path d="M1683.24 518.122C1683.24 518.122 1682.66 518.235 1681.79 518.457C1679.03 519.014 1673.07 520.351 1666.82 522.356C1658.4 525.03 1647.79 525.364 1640.67 522.356C1640.67 522.356 1627.45 525.03 1618.59 524.473C1609.73 524.028 1585.91 523.693 1577.48 522.022C1569.05 520.351 1556.27 516.34 1550.46 514.112C1544.65 511.884 1538.11 506.536 1535.35 502.415C1532.74 498.292 1527.8 496.956 1520.39 489.937C1512.83 483.03 1523.44 462.197 1523.44 462.197C1523.44 462.197 1524.02 461.417 1525.04 460.192C1527.94 456.627 1534.77 449.052 1542.9 444.038C1553.95 437.242 1561.94 428.553 1571.67 419.306C1581.4 410.06 1595.49 398.362 1602.61 397.471C1609.73 396.58 1625.57 398.25 1627.31 409.391C1627.31 409.391 1638.2 399.365 1653.31 406.383C1663.19 411.062 1663.48 418.304 1662.46 422.76C1661.88 424.988 1661.16 426.437 1661.01 426.659C1661.45 426.548 1666.68 424.988 1670.02 426.659C1673.22 428.218 1681.93 506.648 1683.09 517.009C1683.24 517.677 1683.24 518.122 1683.24 518.122Z" stroke="#263238" stroke-miterlimit="10" stroke-linecap="round" stroke-linejoin="round"/>
<path d="M1627.6 409.279C1622.8 412.288 1596.22 450.722 1591.28 455.29C1586.34 459.858 1572.68 472.892 1566.73 477.683C1560.77 482.473 1556.12 489.826 1556.12 489.826C1556.12 489.826 1549.88 494.728 1543.92 497.958" stroke="#263238" stroke-miterlimit="10" stroke-linecap="round" stroke-linejoin="round"/>
<path d="M1661.16 426.66C1661.16 426.66 1653.89 436.017 1649.54 443.927C1645.18 451.837 1632.68 471.89 1627.6 479.577C1622.37 487.152 1614.09 504.755 1608.13 507.54C1602.18 510.325 1593.61 516.675 1588.23 516.23" stroke="#263238" stroke-miterlimit="10" stroke-linecap="round" stroke-linejoin="round"/>
<path d="M1592.88 518.458C1592.88 518.458 1591.43 516.007 1592.88 515.337" stroke="#263238" stroke-miterlimit="10" stroke-linecap="round" stroke-linejoin="round"/>
<path d="M1644.6 519.683C1644.6 519.683 1656.51 510.882 1658.25 504.532C1659.85 498.07 1683.38 447.715 1683.38 447.715" stroke="#263238" stroke-miterlimit="10" stroke-linecap="round" stroke-linejoin="round"/>
<path d="M1599.42 406.272C1599.42 406.272 1613.07 405.604 1620.33 413.068C1620.33 413.068 1609.44 434.012 1596.07 428.664C1582.85 423.317 1599.42 406.272 1599.42 406.272Z" fill="white" stroke="#263238" stroke-miterlimit="10" stroke-linecap="round" stroke-linejoin="round"/>
<path d="M1635.01 413.068C1635.01 413.068 1648.66 412.733 1659.41 419.641C1659.41 419.641 1652.3 443.147 1635.01 439.582C1617.72 436.017 1629.34 420.643 1635.01 413.068Z" fill="white" stroke="#263238" stroke-miterlimit="10" stroke-linecap="round" stroke-linejoin="round"/>
<path d="M1664.5 433.121C1664.5 433.121 1656.8 441.921 1657.82 448.383C1658.83 454.845 1670.02 453.619 1670.02 453.619" stroke="#263238" stroke-miterlimit="10" stroke-linecap="round" stroke-linejoin="round"/>
<path d="M1607.41 455.402C1607.41 455.402 1616.85 460.749 1625.86 462.086" stroke="#263238" stroke-miterlimit="10" stroke-linecap="round" stroke-linejoin="round"/>
<path d="M1528.81 464.982C1528.81 464.982 1530.12 477.238 1533.46 481.47C1536.8 485.816 1559.03 485.593 1559.03 485.593" stroke="#263238" stroke-miterlimit="10" stroke-linecap="round" stroke-linejoin="round"/>
<path d="M1564.7 494.06C1564.7 494.06 1569.34 501.301 1580.97 505.311C1592.59 509.322 1600.58 507.54 1600.58 507.54" stroke="#263238" stroke-miterlimit="10" stroke-linecap="round" stroke-linejoin="round"/>
<path d="M1620.34 511.772C1620.34 511.772 1637.91 518.011 1648.52 513.11" stroke="#263238" stroke-miterlimit="10" stroke-linecap="round" stroke-linejoin="round"/>
<path d="M1571.23 435.238C1571.23 435.238 1575.01 441.922 1582.56 443.482" stroke="#263238" stroke-miterlimit="10" stroke-linecap="round" stroke-linejoin="round"/>
<path d="M1644.6 477.794C1644.6 477.794 1650.12 481.582 1657.82 481.582" stroke="#263238" stroke-miterlimit="10" stroke-linecap="round" stroke-linejoin="round"/>
<path d="M1812.39 485.147C1812.39 485.147 1801.78 499.852 1790.45 503.974C1779.12 507.985 1769.82 506.536 1763.28 509.544C1756.6 512.552 1745.42 514.112 1730.16 516.118C1714.91 518.122 1699.51 520.685 1688.61 519.126C1684.98 518.569 1681.35 517.566 1677.86 516.229C1670.89 513.555 1664.35 509.322 1658.25 504.42C1652.88 500.187 1653.31 493.28 1656.94 488.6C1658.83 486.261 1661.45 484.478 1664.5 484.033C1664.5 484.033 1660.87 481.804 1656.8 479.019C1652.3 476.011 1647.36 472.224 1646.05 469.773C1643.43 465.205 1644.01 457.073 1653.31 449.943C1662.61 442.812 1673.94 443.816 1673.94 443.816C1673.94 443.816 1659.7 434.903 1665.37 424.431C1667.4 420.643 1671.04 415.741 1681.93 414.293C1697.62 412.287 1706.48 419.083 1706.48 419.083C1706.48 419.083 1704.01 407.163 1719.85 404.601C1735.68 402.039 1770.11 421.423 1776.79 423.874C1781.59 425.656 1789 429.89 1796.12 433.232C1796.7 433.455 1797.28 433.789 1797.86 434.011C1799.75 434.903 1801.64 435.683 1803.53 436.351C1811.81 440.919 1814.28 448.16 1818.34 450.165C1820.81 451.391 1823.57 450.945 1825.9 449.831C1826.19 450.165 1826.48 450.5 1826.62 450.722C1829.67 455.624 1837.66 474.898 1812.39 485.147Z" fill="white"/>
<path opacity="0.4" d="M1812.39 485.147C1812.39 485.147 1801.78 499.852 1790.45 503.974C1779.12 507.985 1769.82 506.536 1763.28 509.544C1756.6 512.552 1745.42 514.112 1730.16 516.118C1714.91 518.122 1699.51 520.685 1688.61 519.126C1684.98 518.569 1681.35 517.566 1677.86 516.229C1686.14 515.784 1692.39 512.552 1695.3 507.874C1698.93 501.969 1688.03 501.523 1685.56 505.311C1682.95 508.987 1667.4 507.651 1670.16 505.311C1672.92 502.972 1667.4 490.717 1664.5 489.046C1663.19 488.378 1660.14 488.378 1656.94 488.712C1658.83 486.372 1661.45 484.589 1664.5 484.144C1664.5 484.144 1660.87 481.916 1656.8 479.13L1666.97 483.81C1666.97 483.81 1688.76 498.292 1700.67 505.423C1712.58 512.552 1735.1 510.882 1741.06 505.423C1747.01 499.964 1720.14 483.03 1711.71 477.905C1703.58 472.892 1699.95 464.648 1699.8 464.091C1700.53 464.648 1722.46 480.913 1734.67 491.831C1747.01 502.86 1759.94 499.63 1774.03 494.616C1787.98 489.603 1780.28 475.232 1775.78 471.778C1771.27 468.325 1751.52 455.179 1748.47 451.168C1745.42 447.269 1723.77 433.009 1722.32 432.118C1723.77 432.898 1747.74 444.707 1751.08 447.714C1754.57 450.834 1763.43 455.513 1776.79 462.755C1790.16 470.107 1800.18 478.462 1810.06 462.755C1816.89 451.948 1804.4 439.916 1796.12 433.455C1796.7 433.677 1797.28 434.011 1797.86 434.234C1799.75 435.126 1801.64 435.906 1803.53 436.574C1811.81 441.142 1814.28 448.383 1818.34 450.388C1820.81 451.614 1823.57 451.168 1825.9 450.054C1826.19 450.388 1826.48 450.722 1826.62 450.945C1829.67 455.624 1837.66 474.898 1812.39 485.147Z" fill="#4BAF47"/>
<path opacity="0.4" d="M1677.86 438.468C1677.86 438.468 1682.8 427.328 1699.36 423.986C1699.36 423.986 1715.63 432.675 1715.63 439.805C1715.63 446.935 1709.39 452.394 1697.77 449.72C1686.14 446.935 1677.86 438.468 1677.86 438.468Z" fill="#4BAF47"/>
<path opacity="0.4" d="M1716.94 420.531C1716.94 420.531 1723.62 413.959 1733.79 411.842C1733.79 411.842 1755.15 424.32 1747.16 430.892C1739.02 437.577 1720.14 429.11 1716.94 420.531Z" fill="#4BAF47"/>
<path opacity="0.4" d="M1655.78 469.55C1655.78 469.55 1663.92 459.746 1675.97 457.072C1675.97 457.072 1700.82 467.879 1688.18 476.345C1675.68 484.812 1658.69 474.118 1655.78 469.55Z" fill="#4BAF47"/>
<path d="M1812.39 485.147C1812.39 485.147 1801.78 499.852 1790.45 503.974C1779.12 507.985 1769.82 506.536 1763.28 509.544C1756.6 512.552 1745.42 514.112 1730.16 516.118C1714.91 518.122 1699.51 520.685 1688.61 519.126C1677.72 517.566 1667.4 511.773 1658.11 504.42C1649.97 497.958 1655.06 485.593 1664.35 484.033C1664.35 484.033 1648.37 474.341 1645.76 469.773C1643.14 465.205 1643.72 457.073 1653.02 449.943C1662.32 442.812 1673.65 443.816 1673.65 443.816C1673.65 443.816 1659.41 434.903 1665.08 424.431C1667.11 420.643 1670.74 415.741 1681.64 414.293C1697.33 412.287 1706.19 419.083 1706.19 419.083C1706.19 419.083 1703.72 407.163 1719.56 404.601C1735.39 402.039 1769.82 421.423 1776.5 423.874C1781.73 425.879 1790.01 430.558 1797.57 434.011C1799.46 434.903 1801.35 435.683 1803.23 436.351C1811.51 440.919 1813.98 448.16 1818.05 450.165C1820.52 451.391 1823.28 450.945 1825.61 449.831C1825.9 450.165 1826.19 450.5 1826.33 450.722C1829.67 455.624 1837.66 474.898 1812.39 485.147Z" stroke="#263238" stroke-miterlimit="10" stroke-linecap="round" stroke-linejoin="round"/>
<path d="M1706.19 419.195C1708.37 423.205 1728.56 437.131 1737.28 441.142C1746 445.263 1770.26 465.54 1777.38 468.325C1784.49 470.999 1790.6 479.465 1799.02 481.582" stroke="#263238" stroke-miterlimit="10" stroke-linecap="round" stroke-linejoin="round"/>
<path d="M1673.8 443.927C1686 451.726 1699.66 464.982 1706.34 468.659C1713.02 472.335 1727.98 485.259 1734.67 491.72C1741.35 498.181 1745.71 502.526 1771.86 505.312" stroke="#263238" stroke-miterlimit="10" stroke-linecap="round" stroke-linejoin="round"/>
<path d="M1781.01 485.593C1781.01 485.593 1779.26 497.847 1754.86 500.187" stroke="#263238" stroke-miterlimit="10" stroke-linecap="round" stroke-linejoin="round"/>
<path d="M1664.5 484.144C1664.5 484.144 1681.64 495.173 1688.61 498.181C1695.59 501.189 1704.88 509.322 1712 511.104C1719.12 512.775 1726.09 511.104 1726.09 511.104" stroke="#263238" stroke-miterlimit="10" stroke-linecap="round" stroke-linejoin="round"/>
<path d="M1744.54 499.296C1744.54 499.296 1741.49 503.306 1737.42 505.312" stroke="#263238" stroke-miterlimit="10" stroke-linecap="round" stroke-linejoin="round"/>
<path d="M1673.8 436.574C1673.8 436.574 1678.74 425.433 1695.3 422.091C1695.3 422.091 1711.57 430.781 1711.57 437.911C1711.57 445.041 1705.32 450.5 1693.7 447.826C1682.08 444.929 1673.8 436.574 1673.8 436.574Z" fill="white" stroke="#263238" stroke-miterlimit="10" stroke-linecap="round" stroke-linejoin="round"/>
<path d="M1714.18 419.195C1714.18 419.195 1720.87 412.622 1731.04 410.505C1731.04 410.505 1752.39 422.982 1744.4 429.556C1736.41 436.24 1717.52 427.884 1714.18 419.195Z" fill="white" stroke="#263238" stroke-miterlimit="10" stroke-linecap="round" stroke-linejoin="round"/>
<path d="M1653.46 467.768C1653.46 467.768 1661.59 457.964 1673.65 455.291C1673.65 455.291 1698.49 466.097 1685.85 474.564C1673.36 483.031 1656.51 472.335 1653.46 467.768Z" fill="white" stroke="#263238" stroke-miterlimit="10" stroke-linecap="round" stroke-linejoin="round"/>
<path d="M1659.41 499.741C1659.41 499.741 1670.89 497.958 1673.79 489.937C1673.79 489.937 1685.56 496.956 1678.73 502.415C1668.71 510.325 1659.41 499.741 1659.41 499.741Z" fill="white" stroke="#263238" stroke-miterlimit="10" stroke-linecap="round" stroke-linejoin="round"/>
<path d="M1760.38 446.155C1760.38 446.155 1766.34 444.15 1768.08 437.8" stroke="#263238" stroke-miterlimit="10" stroke-linecap="round" stroke-linejoin="round"/>
<path d="M1739.46 455.402C1739.46 455.402 1736.84 466.542 1722.75 468.325" stroke="#263238" stroke-miterlimit="10" stroke-linecap="round" stroke-linejoin="round"/>
<path d="M1703.87 481.582C1703.87 481.582 1698.06 488.044 1689.49 489.937" stroke="#263238" stroke-miterlimit="10" stroke-linecap="round" stroke-linejoin="round"/>
<path d="M1709.24 510.102C1709.24 510.102 1705.61 514.335 1699.65 516.118" stroke="#263238" stroke-miterlimit="10" stroke-linecap="round" stroke-linejoin="round"/>
<path d="M1719.56 511.772C1719.56 511.772 1720.14 514.224 1718.1 516.118" stroke="#263238" stroke-miterlimit="10" stroke-linecap="round" stroke-linejoin="round"/>
<path d="M1678.45 514.001C1678.45 514.001 1687.02 513.889 1692.68 507.54" stroke="#263238" stroke-miterlimit="10" stroke-linecap="round" stroke-linejoin="round"/>
</g>
</g>
<path d="M1635 164.403H1395V519.727H1635V164.403Z" fill="url(#paint0_linear_3_2975)"/>
</g>
<defs>
<linearGradient id="paint0_linear_3_2975" x1="1395" y1="365.93" x2="1629.5" y2="365.93" gradientUnits="userSpaceOnUse">
<stop stop-color="#24231D"/>
<stop offset="1" stop-color="#24231D" stop-opacity="0"/>
</linearGradient>
<clipPath id="clip0_3_2975">
<rect width="1920" height="609" fill="white" transform="translate(-63)"/>
</clipPath>
</defs>
</svg>
